<svg width="256" height="256" viewBox="0 0 256 256" fill="none" xmlns="http://www.w3.org/2000/svg">
  <rect x="20" y="20" width="216" height="216" rx="54" fill="url(#panel)" stroke="rgba(255,255,255,0.72)" stroke-width="4"/>
  <path d="M82 120C104 86 132 68 176 64C142 88 121 115 109 156C100 144 91 132 82 120Z" fill="white" fill-opacity="0.96"/>
  <path d="M118 84C136 113 151 147 158 194C140 169 122 146 92 124C102 111 111 97 118 84Z" fill="white" fill-opacity="0.78"/>
  <path d="M74 170C103 162 130 153 180 126C154 160 123 184 78 198C77 188 76 179 74 170Z" fill="white" fill-opacity="0.56"/>
  <defs>
    <linearGradient id="panel" x1="34" y1="32" x2="222" y2="226" gradientUnits="userSpaceOnUse">
      <stop stop-color="#F9EFE0"/>
      <stop offset="0.38" stop-color="#C65A43"/>
      <stop offset="0.72" stop-color="#8BBFA4"/>
      <stop offset="1" stop-color="#9587C8"/>
    </linearGradient>
  </defs>
</svg>
